<svg viewBox="900.7561 497.1999 408.3551 84.4336" width="5000" height="1033.8257070867978" xmlns="http://www.w3.org/2000/svg" xmlns:xlink="http://www.w3.org/1999/xlink" preserveAspectRatio="none"><defs></defs><style>.a6izo4zJpcolor {fill:#35C0ED;fill-opacity:1;}.a6izo4zJpstrokeColor-str {stroke:#35C0ED;stroke-opacity:1;}.aD6z1nYkhstrokeColor-str {stroke:#1519A4;stroke-opacity:1;}.aIptOCySncolors-0 {fill:#35C0ED;fill-opacity:1;}.aIptOCySncolors-1 {fill:#08376B;fill-opacity:1;}.aIptOCySncolors-2 {fill:#08376B;fill-opacity:1;}.companyName {fill:#08376B;fill-opacity:1;}.shapeStroke-str {stroke:#08376B;stroke-opacity:1;}</style><g opacity="1" transform="rotate(0 900.7561 509.3151)">
<svg width="127.2258" height="65.2032" x="900.7561" y="509.3151" version="1.1" preserveAspectRatio="none" viewBox="20 59 160 82">
  <g transform="matrix(1 0 0 1 0 0)"><g><path d="M96.5 141H68.7l-16.4-29 13.9-24.6L96.5 141z" data-color="1" class="aIptOCySncolors-0"></path><path d="M48.7 141H20l46.9-82h28.7l-46.9 82z" data-color="2" class="aIptOCySncolors-1"></path><path d="M97.6 141H68.9l46.9-82h28.7l-46.9 82z" data-color="3" class="aIptOCySncolors-2"></path><path d="M180 141h-28.8l-16.9-29 14.4-24.6L180 141z" data-color="1" class="aIptOCySncolors-0"></path></g></g>
</svg>
</g><g opacity="1" transform="rotate(0 1055.34 559.3391)">
<svg width="253.7712" height="15.0436" x="1055.34" y="559.3391" version="1.1" preserveAspectRatio="none" viewBox="3.84 -27.88 608.7599999999999 36.08">
  <g transform="matrix(1 0 0 1 0 0)" class="a6izo4zJpcolor"><path id="id-6izo4zJp25" d="M3.84 0L3.84-25.88L9.16-25.88L9.16 0L3.84 0Z M15.36 0L15.36-19.88L20.56-19.88L20.56 0L15.36 0ZM29.80-20.32L29.80-20.32Q31.64-20.32 33.20-19.84Q34.76-19.36 35.92-18.36Q37.08-17.36 37.72-15.82Q38.36-14.28 38.36-12.16L38.36-12.16L38.36 0L33.16 0L33.16-11.24Q33.16-13.76 31.94-14.94Q30.72-16.12 27.96-16.12L27.96-16.12Q25.88-16.12 24.20-15.32Q22.52-14.52 21.48-13.30Q20.44-12.08 20.28-10.76L20.28-10.76L20.24-12.80Q20.44-14.20 21.16-15.52Q21.88-16.84 23.10-17.94Q24.32-19.04 26-19.68Q27.68-20.32 29.80-20.32Z M42.28-6.60L42.28-6.60L47.08-6.60Q47.52-5.24 48.90-4.38Q50.28-3.52 52.52-3.52L52.52-3.52Q54.04-3.52 54.88-3.80Q55.72-4.08 56.04-4.62Q56.36-5.16 56.36-5.84L56.36-5.84Q56.36-6.68 55.84-7.14Q55.32-7.60 54.24-7.88Q53.16-8.16 51.48-8.40L51.48-8.40Q49.80-8.68 48.24-9.08Q46.68-9.48 45.48-10.14Q44.28-10.80 43.58-11.82Q42.88-12.84 42.88-14.32L42.88-14.32Q42.88-15.76 43.58-16.88Q44.28-18 45.54-18.76Q46.80-19.52 48.50-19.92Q50.20-20.32 52.16-20.32L52.16-20.32Q55.12-20.32 57.08-19.46Q59.04-18.60 60.02-17.06Q61-15.52 61-13.52L61-13.52L56.40-13.52Q56.08-15 55.12-15.66Q54.16-16.32 52.16-16.32L52.16-16.32Q50.20-16.32 49.20-15.72Q48.20-15.12 48.20-14.08L48.20-14.08Q48.20-13.24 48.82-12.78Q49.44-12.32 50.66-12.04Q51.88-11.76 53.72-11.44L53.72-11.44Q55.28-11.12 56.70-10.72Q58.12-10.32 59.24-9.70Q60.36-9.08 61.02-8.06Q61.68-7.04 61.68-5.48L61.68-5.48Q61.68-3.56 60.58-2.24Q59.48-0.92 57.44-0.22Q55.40 0.48 52.56 0.48L52.56 0.48Q50.04 0.48 48.22-0.06Q46.40-0.60 45.20-1.46Q44-2.32 43.34-3.30Q42.68-4.28 42.44-5.16Q42.20-6.04 42.28-6.60Z M88.64-19.88L88.64 0L83.44 0L83.44-19.88L88.64-19.88ZM83.72-9.56L83.72-9.56L83.76-8.20Q83.68-7.64 83.36-6.58Q83.04-5.52 82.38-4.32Q81.72-3.12 80.68-2.02Q79.64-0.92 78.12-0.22Q76.60 0.48 74.52 0.48L74.52 0.48Q72.88 0.48 71.30 0.08Q69.72-0.32 68.44-1.26Q67.16-2.20 66.40-3.80Q65.64-5.40 65.64-7.84L65.64-7.84L65.64-19.88L70.84-19.88L70.84-8.72Q70.84-6.80 71.46-5.70Q72.08-4.60 73.28-4.16Q74.48-3.72 76.12-3.72L76.12-3.72Q78.28-3.72 79.84-4.66Q81.40-5.60 82.38-6.96Q83.36-8.32 83.72-9.56Z M93.36 0L93.36-19.88L98.56-19.88L98.56 0L93.36 0ZM106.20-20.32L106.20-15.60Q103.96-15.60 102.32-14.74Q100.68-13.88 99.68-12.64Q98.68-11.40 98.28-10.24L98.28-10.24L98.24-12.44Q98.28-12.92 98.56-13.86Q98.84-14.80 99.40-15.90Q99.96-17 100.88-18.02Q101.80-19.04 103.12-19.68Q104.44-20.32 106.20-20.32L106.20-20.32Z M119.08 0.44L119.08 0.44Q116.12 0.44 113.70-0.86Q111.28-2.16 109.86-4.50Q108.44-6.84 108.44-9.92L108.44-9.92Q108.44-13.08 109.88-15.40Q111.32-17.72 113.78-19.02Q116.24-20.32 119.36-20.32L119.36-20.32Q122.80-20.32 124.90-18.94Q127-17.56 127.96-15.20Q128.92-12.84 128.92-9.92L128.92-9.92Q128.92-8.16 128.36-6.34Q127.80-4.52 126.64-2.98Q125.48-1.44 123.60-0.50Q121.72 0.44 119.08 0.44ZM120.76-3.56L120.76-3.56Q123.12-3.56 124.84-4.36Q126.56-5.16 127.48-6.60Q128.40-8.04 128.40-9.92L128.40-9.92Q128.40-11.96 127.46-13.38Q126.52-14.80 124.82-15.54Q123.12-16.28 120.76-16.28L120.76-16.28Q117.44-16.28 115.60-14.54Q113.76-12.80 113.76-9.92L113.76-9.92Q113.76-8 114.64-6.58Q115.52-5.16 117.10-4.36Q118.68-3.56 120.76-3.56ZM128.40-5.12L128.40-19.88L133.60-19.88L133.60 0L128.76 0Q128.76 0 128.66-0.78Q128.56-1.56 128.48-2.76Q128.40-3.96 128.40-5.12L128.40-5.12Z M138.32 0L138.32-19.88L143.52-19.88L143.52 0L138.32 0ZM152.76-20.32L152.76-20.32Q154.60-20.32 156.16-19.84Q157.72-19.36 158.88-18.36Q160.04-17.36 160.68-15.82Q161.32-14.28 161.32-12.16L161.32-12.16L161.32 0L156.12 0L156.12-11.24Q156.12-13.76 154.90-14.94Q153.68-16.12 150.92-16.12L150.92-16.12Q148.84-16.12 147.16-15.32Q145.48-14.52 144.44-13.30Q143.40-12.08 143.24-10.76L143.24-10.76L143.20-12.80Q143.40-14.20 144.12-15.52Q144.84-16.84 146.06-17.94Q147.28-19.04 148.96-19.68Q150.64-20.32 152.76-20.32Z M184.88-7.84L189.64-7.84Q189.44-5.24 187.98-3.36Q186.52-1.48 183.96-0.50Q181.40 0.48 177.88 0.48L177.88 0.48Q174.20 0.48 171.30-0.70Q168.40-1.88 166.74-4.18Q165.08-6.48 165.08-9.88L165.08-9.88Q165.08-13.28 166.74-15.60Q168.40-17.92 171.30-19.12Q174.20-20.32 177.88-20.32L177.88-20.32Q181.40-20.32 183.92-19.34Q186.44-18.36 187.90-16.52Q189.36-14.68 189.60-12.08L189.60-12.08L184.84-12.08Q184.16-14.08 182.32-15.20Q180.48-16.32 177.88-16.32L177.88-16.32Q175.80-16.32 174.10-15.60Q172.40-14.88 171.38-13.46Q170.36-12.04 170.36-9.88L170.36-9.88Q170.36-7.76 171.36-6.34Q172.36-4.92 174.08-4.22Q175.80-3.52 177.88-3.52L177.88-3.52Q180.68-3.52 182.46-4.64Q184.24-5.76 184.88-7.84L184.88-7.84Z M211.60-6.60L211.60-6.60L216.64-6.60Q216.32-4.56 214.94-2.96Q213.56-1.36 211.20-0.44Q208.84 0.48 205.44 0.48L205.44 0.48Q201.64 0.48 198.72-0.74Q195.80-1.96 194.16-4.28Q192.52-6.60 192.52-9.88L192.52-9.88Q192.52-13.16 194.12-15.50Q195.72-17.84 198.58-19.08Q201.44-20.32 205.28-20.32L205.28-20.32Q209.20-20.32 211.80-19.08Q214.40-17.84 215.66-15.34Q216.92-12.84 216.72-8.96L216.72-8.96L197.76-8.96Q197.96-7.44 198.90-6.20Q199.84-4.96 201.46-4.24Q203.08-3.52 205.32-3.52L205.32-3.52Q207.80-3.52 209.46-4.38Q211.12-5.24 211.60-6.60ZM205.04-16.36L205.04-16.36Q202.16-16.36 200.36-15.10Q198.56-13.84 198.04-12L198.04-12L211.56-12Q211.36-14 209.66-15.18Q207.96-16.36 205.04-16.36Z M252.08-5.64L234.96-5.64L234.96-10.08L252.08-10.08L252.08-5.64ZM234.28 0L228.52 0L240.68-25.88L246.44-25.88L258.72 0L252.92 0L242.28-23.32L244.84-23.32L234.28 0Z M271.48-3.04L271.48-3.04Q268.24-3.04 265.78-4.02Q263.32-5 261.96-6.92Q260.60-8.84 260.60-11.56L260.60-11.56Q260.60-14.24 261.92-16.20Q263.24-18.16 265.70-19.24Q268.16-20.32 271.48-20.32L271.48-20.32Q272.40-20.32 273.26-20.20Q274.12-20.08 274.96-19.88L274.96-19.88L285-19.84L285-15.92Q282.96-15.88 280.86-16.42Q278.76-16.96 277.16-17.60L277.16-17.60L277.04-17.88Q278.40-17.24 279.60-16.30Q280.80-15.36 281.54-14.14Q282.28-12.92 282.28-11.32L282.28-11.32Q282.28-8.72 280.96-6.86Q279.64-5 277.22-4.02Q274.80-3.04 271.48-3.04ZM283.36 8.20L278.16 8.20L278.16 7.24Q278.16 5.40 276.98 4.68Q275.80 3.96 273.76 3.96L273.76 3.96L267.56 3.96Q265.76 3.96 264.54 3.68Q263.32 3.40 262.60 2.88Q261.88 2.36 261.56 1.66Q261.24 0.96 261.24 0.16L261.24 0.16Q261.24-1.44 262.28-2.26Q263.32-3.08 265.08-3.36Q266.84-3.64 268.96-3.48L268.96-3.48L271.48-3.04Q268.96-2.96 267.74-2.62Q266.52-2.28 266.52-1.28L266.52-1.28Q266.52-0.68 267-0.34Q267.48 0 268.36 0L268.36 0L274.88 0Q277.56 0 279.46 0.58Q281.36 1.16 282.36 2.54Q283.36 3.92 283.36 6.32L283.36 6.32L283.36 8.20ZM271.48-6.80L271.48-6.80Q273.20-6.80 274.50-7.36Q275.80-7.92 276.52-8.98Q277.24-10.04 277.24-11.52L277.24-11.52Q277.24-13.04 276.52-14.12Q275.80-15.20 274.52-15.78Q273.24-16.36 271.48-16.36L271.48-16.36Q269.76-16.36 268.44-15.78Q267.12-15.20 266.40-14.12Q265.68-13.04 265.68-11.52L265.68-11.52Q265.68-10.04 266.40-8.98Q267.12-7.92 268.42-7.36Q269.72-6.80 271.48-6.80Z M306.16-6.60L306.16-6.60L311.20-6.60Q310.88-4.56 309.50-2.96Q308.12-1.36 305.76-0.44Q303.40 0.48 300 0.48L300 0.48Q296.20 0.48 293.28-0.74Q290.36-1.96 288.72-4.28Q287.08-6.60 287.08-9.88L287.08-9.88Q287.08-13.16 288.68-15.50Q290.28-17.84 293.14-19.08Q296-20.32 299.84-20.32L299.84-20.32Q303.76-20.32 306.36-19.08Q308.96-17.84 310.22-15.34Q311.48-12.84 311.28-8.96L311.28-8.96L292.32-8.96Q292.52-7.44 293.46-6.20Q294.40-4.96 296.02-4.24Q297.64-3.52 299.88-3.52L299.88-3.52Q302.36-3.52 304.02-4.38Q305.68-5.24 306.16-6.60ZM299.60-16.36L299.60-16.36Q296.72-16.36 294.92-15.10Q293.12-13.84 292.60-12L292.60-12L306.12-12Q305.92-14 304.22-15.18Q302.52-16.36 299.60-16.36Z M315.16 0L315.16-19.88L320.36-19.88L320.36 0L315.16 0ZM329.60-20.32L329.60-20.32Q331.44-20.32 333-19.84Q334.56-19.36 335.72-18.36Q336.88-17.36 337.52-15.82Q338.16-14.28 338.16-12.16L338.16-12.16L338.16 0L332.96 0L332.96-11.24Q332.96-13.76 331.74-14.94Q330.52-16.12 327.76-16.12L327.76-16.12Q325.68-16.12 324-15.32Q322.32-14.52 321.28-13.30Q320.24-12.08 320.08-10.76L320.08-10.76L320.04-12.80Q320.24-14.20 320.96-15.52Q321.68-16.84 322.90-17.94Q324.12-19.04 325.80-19.68Q327.48-20.32 329.60-20.32Z M361.72-7.84L366.48-7.84Q366.28-5.24 364.82-3.36Q363.36-1.48 360.80-0.50Q358.24 0.48 354.72 0.48L354.72 0.48Q351.04 0.48 348.14-0.70Q345.24-1.88 343.58-4.18Q341.92-6.48 341.92-9.88L341.92-9.88Q341.92-13.28 343.58-15.60Q345.24-17.92 348.14-19.12Q351.04-20.32 354.72-20.32L354.72-20.32Q358.24-20.32 360.76-19.34Q363.28-18.36 364.74-16.52Q366.20-14.68 366.44-12.08L366.44-12.08L361.68-12.08Q361-14.08 359.16-15.20Q357.32-16.32 354.72-16.32L354.72-16.32Q352.64-16.32 350.94-15.60Q349.24-14.88 348.22-13.46Q347.20-12.04 347.20-9.88L347.20-9.88Q347.20-7.76 348.20-6.34Q349.20-4.92 350.92-4.22Q352.64-3.52 354.72-3.52L354.72-3.52Q357.52-3.52 359.30-4.64Q361.08-5.76 361.72-7.84L361.72-7.84Z M378.16 0L368.52-19.88L374.04-19.88L382.64-0.80L378.16 0ZM387.28-19.88L392.84-19.88L379.08 8L373.68 8L379.56-2.96L387.28-19.88Z M411.52-25.88L432.44-5.28L430.76-4.60L430.76-25.88L436.08-25.88L436.08 0L430.76 0L409.84-20.44L411.52-21.12L411.52 0L406.20 0L406.20-25.88L411.52-25.88Z M459.68-6.60L459.68-6.60L464.72-6.60Q464.40-4.56 463.02-2.96Q461.64-1.36 459.28-0.44Q456.92 0.48 453.52 0.48L453.52 0.48Q449.72 0.48 446.80-0.74Q443.88-1.96 442.24-4.28Q440.60-6.60 440.60-9.88L440.60-9.88Q440.60-13.16 442.20-15.50Q443.80-17.84 446.66-19.08Q449.52-20.32 453.36-20.32L453.36-20.32Q457.28-20.32 459.88-19.08Q462.48-17.84 463.74-15.34Q465-12.84 464.80-8.96L464.80-8.96L445.84-8.96Q446.04-7.44 446.98-6.20Q447.92-4.96 449.54-4.24Q451.16-3.52 453.40-3.52L453.40-3.52Q455.88-3.52 457.54-4.38Q459.20-5.24 459.68-6.60ZM453.12-16.36L453.12-16.36Q450.24-16.36 448.44-15.10Q446.64-13.84 446.12-12L446.12-12L459.64-12Q459.44-14 457.74-15.18Q456.04-16.36 453.12-16.36Z M467.00-15.84L467.00-19.88L482.44-19.88L482.44-15.84L467.00-15.84ZM472.12 0L472.12-25.32L477.32-25.32L477.32 0L472.12 0Z M506.08-19.88L511.68-3.60L510.04-3.64L516.52-19.88L522.24-19.88L513.48 0L508.60 0L502.20-16.04L503.96-16.04L497.36 0L492.48 0L483.96-19.88L489.68-19.88L495.92-3.60L494.28-3.60L500.12-19.88L506.08-19.88Z M536.08 0.48L536.08 0.48Q532.32 0.48 529.46-0.72Q526.60-1.92 525.00-4.22Q523.40-6.52 523.40-9.88L523.40-9.88Q523.40-13.24 525.00-15.58Q526.60-17.92 529.46-19.12Q532.32-20.32 536.08-20.32L536.08-20.32Q539.84-20.32 542.66-19.12Q545.48-17.92 547.08-15.58Q548.68-13.24 548.68-9.88L548.68-9.88Q548.68-6.52 547.08-4.22Q545.48-1.92 542.66-0.72Q539.84 0.48 536.08 0.48ZM536.08-3.52L536.08-3.52Q538.16-3.52 539.82-4.26Q541.48-5 542.44-6.42Q543.40-7.84 543.40-9.88L543.40-9.88Q543.40-11.92 542.44-13.38Q541.48-14.84 539.84-15.60Q538.20-16.36 536.08-16.36L536.08-16.36Q534.00-16.36 532.32-15.60Q530.64-14.84 529.66-13.40Q528.68-11.96 528.68-9.88L528.68-9.88Q528.68-7.84 529.64-6.42Q530.60-5 532.28-4.26Q533.96-3.52 536.08-3.52Z M552.52 0L552.52-19.88L557.72-19.88L557.72 0L552.52 0ZM565.36-20.32L565.36-15.60Q563.12-15.60 561.48-14.74Q559.84-13.88 558.84-12.64Q557.84-11.40 557.44-10.24L557.44-10.24L557.40-12.44Q557.44-12.92 557.72-13.86Q558.00-14.80 558.56-15.90Q559.12-17 560.04-18.02Q560.96-19.04 562.28-19.68Q563.60-20.32 565.36-20.32L565.36-20.32Z M568.92 0L568.92-27.88L574.12-27.88L574.12 0L568.92 0ZM583.80-19.88L590.88-19.88L579.04-9.44L579.16-12.64L591.80 0L585.20 0L574.24-11.16L583.80-19.88Z M593.20-6.60L593.20-6.60L598.00-6.60Q598.44-5.24 599.82-4.38Q601.20-3.52 603.44-3.52L603.44-3.52Q604.96-3.52 605.80-3.80Q606.64-4.08 606.96-4.62Q607.28-5.16 607.28-5.84L607.28-5.84Q607.28-6.68 606.76-7.14Q606.24-7.60 605.16-7.88Q604.08-8.16 602.40-8.40L602.40-8.40Q600.72-8.68 599.16-9.08Q597.60-9.48 596.40-10.14Q595.20-10.80 594.50-11.82Q593.80-12.84 593.80-14.32L593.80-14.32Q593.80-15.76 594.50-16.88Q595.20-18 596.46-18.76Q597.72-19.52 599.42-19.92Q601.12-20.32 603.08-20.32L603.08-20.32Q606.04-20.32 608.00-19.46Q609.96-18.60 610.94-17.06Q611.92-15.52 611.92-13.52L611.92-13.52L607.32-13.52Q607.00-15 606.04-15.66Q605.08-16.32 603.08-16.32L603.08-16.32Q601.12-16.32 600.12-15.72Q599.12-15.12 599.12-14.08L599.12-14.08Q599.12-13.24 599.74-12.78Q600.36-12.32 601.58-12.04Q602.80-11.76 604.64-11.44L604.64-11.44Q606.20-11.12 607.62-10.72Q609.04-10.32 610.16-9.70Q611.28-9.08 611.94-8.06Q612.60-7.04 612.60-5.48L612.60-5.48Q612.60-3.56 611.50-2.24Q610.40-0.92 608.36-0.22Q606.32 0.48 603.48 0.48L603.48 0.48Q600.96 0.48 599.14-0.06Q597.32-0.60 596.12-1.46Q594.92-2.32 594.26-3.30Q593.60-4.28 593.36-5.16Q593.12-6.04 593.20-6.60Z"/></g>
</svg>
</g><g opacity="1" transform="rotate(0 1055.34 509.3151)">
<svg width="253.7712" height="38.4073" x="1055.34" y="509.3151" version="1.1" preserveAspectRatio="none" viewBox="3.08 -26.4 177.88 26.92">
  <g transform="matrix(1 0 0 1 0 0)" class="companyName"><path id="id-D6z1nYkh6" d="M8.40-25.88L29.32-5.28L27.64-4.60L27.64-25.88L32.96-25.88L32.96 0L27.64 0L6.72-20.44L8.40-21.12L8.40 0L3.08 0L3.08-25.88L8.40-25.88Z M54.56-6.60L54.56-6.60L59.60-6.60Q59.28-4.56 57.90-2.96Q56.52-1.36 54.16-0.44Q51.80 0.48 48.40 0.48L48.40 0.48Q44.60 0.48 41.68-0.74Q38.76-1.96 37.12-4.28Q35.48-6.60 35.48-9.88L35.48-9.88Q35.48-13.16 37.08-15.50Q38.68-17.84 41.54-19.08Q44.40-20.32 48.24-20.32L48.24-20.32Q52.16-20.32 54.76-19.08Q57.36-17.84 58.62-15.34Q59.88-12.84 59.68-8.96L59.68-8.96L40.72-8.96Q40.92-7.44 41.86-6.20Q42.80-4.96 44.42-4.24Q46.04-3.52 48.28-3.52L48.28-3.52Q50.76-3.52 52.42-4.38Q54.08-5.24 54.56-6.60ZM48-16.36L48-16.36Q45.12-16.36 43.32-15.10Q41.52-13.84 41-12L41-12L54.52-12Q54.32-14 52.62-15.18Q50.92-16.36 48-16.36Z M81.08-19.88L86.68-3.60L85.04-3.64L91.52-19.88L97.24-19.88L88.48 0L83.60 0L77.20-16.04L78.96-16.04L72.36 0L67.48 0L58.96-19.88L64.68-19.88L70.92-3.60L69.28-3.60L75.12-19.88L81.08-19.88Z M113.84 0.52L113.84 0.52Q110.24 0.52 107.34-0.32Q104.44-1.16 102.34-2.84Q100.24-4.52 99.12-7Q98-9.48 98-12.72L98-12.72Q98-16 99.18-18.54Q100.36-21.08 102.54-22.84Q104.72-24.60 107.74-25.50Q110.76-26.40 114.44-26.40L114.44-26.40Q118.80-26.40 121.96-25.18Q125.12-23.96 126.94-21.76Q128.76-19.56 129-16.52L129-16.52L123.88-16.52Q123.36-18.12 122.18-19.30Q121-20.48 119.08-21.14Q117.16-21.80 114.44-21.80L114.44-21.80Q110.96-21.80 108.50-20.68Q106.04-19.56 104.76-17.52Q103.48-15.48 103.48-12.72L103.48-12.72Q103.48-10.04 104.60-8.10Q105.72-6.16 108.06-5.12Q110.40-4.08 114.04-4.08L114.04-4.08Q116.84-4.08 118.98-4.82Q121.12-5.56 122.56-6.82Q124-8.08 124.60-9.64L124.60-9.64L126.68-10.40Q126.16-5.24 122.78-2.36Q119.40 0.52 113.84 0.52ZM129.92 0L125.32 0Q125.32-1.24 125.48-2.86Q125.64-4.48 125.88-6.14Q126.12-7.80 126.32-9.20L126.32-9.20L114.48-9.20L114.48-12.60L129.92-12.60L129.92 0Z M150.96-6.60L150.96-6.60L156-6.60Q155.68-4.56 154.30-2.96Q152.92-1.36 150.56-0.44Q148.20 0.48 144.80 0.48L144.80 0.48Q141 0.48 138.08-0.74Q135.16-1.96 133.52-4.28Q131.88-6.60 131.88-9.88L131.88-9.88Q131.88-13.16 133.48-15.50Q135.08-17.84 137.94-19.08Q140.80-20.32 144.64-20.32L144.64-20.32Q148.56-20.32 151.16-19.08Q153.76-17.84 155.02-15.34Q156.28-12.84 156.08-8.96L156.08-8.96L137.12-8.96Q137.32-7.44 138.26-6.20Q139.20-4.96 140.82-4.24Q142.44-3.52 144.68-3.52L144.68-3.52Q147.16-3.52 148.82-4.38Q150.48-5.24 150.96-6.60ZM144.40-16.36L144.40-16.36Q141.52-16.36 139.72-15.10Q137.92-13.84 137.40-12L137.40-12L150.92-12Q150.72-14 149.02-15.18Q147.32-16.36 144.40-16.36Z M157.96 0L157.96-19.88L163.16-19.88L163.16 0L157.96 0ZM172.40-20.32L172.40-20.32Q174.24-20.32 175.80-19.84Q177.36-19.36 178.52-18.36Q179.68-17.36 180.32-15.82Q180.96-14.28 180.96-12.16L180.96-12.16L180.96 0L175.76 0L175.76-11.24Q175.76-13.76 174.54-14.94Q173.32-16.12 170.56-16.12L170.56-16.12Q168.48-16.12 166.80-15.32Q165.12-14.52 164.08-13.30Q163.04-12.08 162.88-10.76L162.88-10.76L162.84-12.80Q163.04-14.20 163.76-15.52Q164.48-16.84 165.70-17.94Q166.92-19.04 168.60-19.68Q170.28-20.32 172.40-20.32Z"/></g>
</svg>
</g><g opacity="1" transform="rotate(0 1041.7379 497.1999)">
<svg width="1.4231" height="84.4336" x="1041.7379" y="497.1999" version="1.1" preserveAspectRatio="none" viewBox="0 0 1.4231 84.4336">
  <defs><rect x="0" y="0" width="1.4231" height="84.4336" rx="0px" ry="0px" id="id-tBXipXk0b"></rect></defs><use class="companyName shapeStroke-str" style="stroke-width:0;" xlink:href="#id-tBXipXk0b"></use>
</svg>
</g></svg>